# xmcd
#
# Track frame offsets:
#	150
#	14780
#	33257
#
# Disc length: 645 seconds
#
# Revision: 1
# Processed by: cddbd v1.5.2PL0 Copyright (c) Steve Scherf et al.
# Submitted via: EasyCDDAExtractor 11.0.2.1
#
DISCID=1e028303
DTITLE=Up-Date - Ridder Lykke (1999)
DYEAR=1999
DGENRE=Other
TTITLE0=Ridder Lykke (Honeycutt Radio Mix)
TTITLE1=Ridder Lykke (Honeycutt Extended)
TTITLE2=Ridder Lykke (Original Version)
EXTD=YEAR: 2000 ID3G: 12
EXTT0=
EXTT1=
EXTT2=
PLAYORDER=
